<svg width="8" height="6" viewBox="0 0 8 6" fill="none" xmlns="http://www.w3.org/2000/svg">
<path fill-rule="evenodd" clip-rule="evenodd" d="M7.29206 0.769271L7.40618 0.196348L7.38135 0.170348C7.21998 0.0962391 7.03882 0.057498 6.85473 0.0577326H6.37252V0.0769634H4.44149L4.16562 0.153886L3.70585 0.23081C3.60654 0.189419 3.51386 0.13773 3.42999 0.0769634H3.4116C3.37596 0.151099 3.35125 0.228594 3.33804 0.307733L3.06218 0.23081H2.69436L2.4185 0.307733L2.23459 0.153886H2.05068L1.89739 0.0769634H0.985026C0.813236 0.105568 0.652063 0.167999 0.514858 0.259085C0.377652 0.350172 0.268361 0.467292 0.196037 0.600747C0.123713 0.734202 0.0904365 0.88015 0.0989637 1.0265C0.107491 1.17286 0.157576 1.31541 0.245072 1.44235L0.964245 2.48466L1.2231 2.5385L1.13114 2.69235L1.13758 2.73558L1.52378 3.29512L1.57896 3.37396C1.61295 3.38102 1.64784 3.38461 1.68287 3.38466C1.72167 3.37566 1.95873 3.61543 1.95873 3.61543C1.95873 3.61543 2.0665 3.97019 2.11762 4.14381L2.23836 4.31643C2.32543 4.36941 2.4163 4.41789 2.51045 4.46158L2.69436 4.84619V4.96796L2.87827 5.23081L2.863 5.23558L3.07211 5.5385C3.16896 5.67882 3.30825 5.79533 3.47599 5.87634C3.64373 5.95735 3.83401 6 4.02769 6C4.22138 6 4.41165 5.95735 4.57939 5.87634C4.74713 5.79533 4.88643 5.67882 4.98328 5.5385L5.45298 4.85796V4.69235C5.53891 4.61257 5.6296 4.53647 5.7247 4.46435L5.81537 4.33289C5.81721 4.32473 5.81887 4.3175 5.8208 4.30773C5.835 4.20551 5.835 4.10226 5.8208 4.00004C5.9152 3.95696 6.01306 3.91941 6.11367 3.88766L6.64838 3.07696L6.67054 3.09373L7.81031 1.44235C7.91491 1.29214 7.96618 1.12011 7.9581 0.946412C7.95002 0.772711 7.88294 0.604532 7.7647 0.461579L7.29206 0.769271ZM0.955141 2.48242L1.13905 2.74527L1.13758 2.7355L0.964245 2.48466L0.955141 2.48242ZM5.45298 4.88943L5.73804 4.45666L5.72884 4.46158C5.72783 4.46212 5.72581 4.46366 5.7247 4.46435L5.45298 4.85796V4.88943ZM5.92084 4.18012L5.81537 4.33289C5.81445 4.33712 5.81353 4.34019 5.8127 4.34404L5.92084 4.18012Z" fill="#F2E8D9"/>
</svg>
