<svg width="16" height="16" viewBox="0 0 16 16" fill="none" xmlns="http://www.w3.org/2000/svg">
<path fill-rule="evenodd" clip-rule="evenodd" d="M3.208 14.4C3.208 13.52 3.92 12.8 4.8 12.8C5.68 12.8 6.4 13.52 6.4 14.4C6.4 15.28 5.68 16 4.8 16C3.92 16 3.208 15.28 3.208 14.4ZM0 1.6V0H2.616L3.368 1.6H15.2C15.64 1.6 16 1.96 16 2.4C16 2.536 15.968 2.672 15.904 2.784L13.04 7.976C12.768 8.472 12.24 8.8 11.64 8.8H5.68L4.96 10.104L4.936 10.2C4.936 10.312 5.024 10.4 5.136 10.4H14.4V12H4.8C3.92 12 3.2 11.28 3.2 10.4C3.2 10.12 3.272 9.856 3.4 9.632L4.48 7.672L1.6 1.6H0ZM11.208 14.4C11.208 13.52 11.92 12.8 12.8 12.8C13.68 12.8 14.4 13.52 14.4 14.4C14.4 15.28 13.68 16 12.8 16C11.92 16 11.208 15.28 11.208 14.4ZM9.16706 5.14349C9.16706 4.88928 8.96081 4.68303 8.7066 4.68303C8.45238 4.68303 8.24613 4.89791 8.24613 5.14349C8.24613 5.38907 8.45238 5.60396 8.7066 5.60396C8.96081 5.60396 9.16706 5.39771 9.16706 5.14349ZM7.61971 6.87398L8.29985 5.78719C8.08305 5.65001 7.93723 5.41114 7.93733 5.13678H6.65378C6.46826 5.13678 6.32048 5.30082 6.34748 5.48453C6.43362 6.06951 6.73341 6.58485 7.16452 6.95034C7.30505 7.06968 7.52186 7.03035 7.61971 6.87398ZM9.79435 6.87393C9.8922 7.03033 10.1084 7.06968 10.2492 6.95034C10.6799 6.58532 10.9792 6.06922 11.0658 5.48462C11.0928 5.30111 10.945 5.13678 10.7595 5.13678H9.47596C9.47596 5.41114 9.33014 5.65001 9.11334 5.78719L9.79435 6.87393ZM8.7066 4.36838C8.85625 4.36838 8.99535 4.41346 9.11334 4.48733L9.79368 3.39977C9.89095 3.24427 9.83358 3.03334 9.6659 2.95897C9.37254 2.8288 9.04811 2.75579 8.7066 2.75579C8.36508 2.75579 8.04084 2.8287 7.74748 2.95868C7.5798 3.03303 7.52243 3.24398 7.61971 3.39948L8.29985 4.48733C8.41784 4.41347 8.55694 4.36838 8.7066 4.36838Z" fill="black"/>
</svg>
