<svg width="24" height="24" viewBox="0 0 24 24" fill="none" xmlns="http://www.w3.org/2000/svg">
<path fill-rule="evenodd" clip-rule="evenodd" d="M1.61693 18.9863C2.13103 19.6621 2.85628 20 3.79269 20C4.17827 20 4.5363 19.9284 4.8668 19.7852C5.1973 19.6427 5.50025 19.4286 5.77566 19.1429L8.25438 16.5715H15.7456L18.2243 19.1429C18.4997 19.4286 18.8027 19.6427 19.1332 19.7852C19.4637 19.9284 19.8217 20 20.2073 20C21.1437 20 21.869 19.6621 22.3831 18.9863C22.8972 18.3097 23.09 17.4857 22.9614 16.5143L21.8047 7.94289C21.6395 6.80003 21.1481 5.85717 20.3307 5.11432C19.514 4.37146 18.5548 4.00003 17.4532 4.00003L6.54682 4.00003C5.44517 4.00003 4.486 4.37146 3.6693 5.11432C2.85188 5.85717 2.36054 6.80003 2.19529 7.94289L1.03856 16.5143C0.910032 17.4857 1.10282 18.3097 1.61693 18.9863ZM7.37306 14.2857L4.23335 17.5429C3.9763 17.6572 3.82941 17.7143 3.79269 17.7143C3.59072 17.7143 3.43025 17.6522 3.31127 17.528C3.19155 17.4046 3.15006 17.2381 3.18678 17.0286L4.3986 8.2286C4.47204 7.67622 4.71073 7.21413 5.11467 6.84232C5.51861 6.47127 5.99599 6.28574 6.54682 6.28574L17.4532 6.28574C18.004 6.28574 18.4814 6.47127 18.8853 6.84232C19.2893 7.21413 19.528 7.67622 19.6014 8.2286L20.8132 17.0286C20.8499 17.2381 20.8088 17.4046 20.6898 17.528C20.5701 17.6522 20.4093 17.7143 20.2073 17.7143C19.9503 17.6381 19.8034 17.581 19.7666 17.5429L16.6269 14.2857H7.37306Z" fill="#F2E8D9"/>
<path fill-rule="evenodd" clip-rule="evenodd" d="M4.23335 17.5429L7.37306 14.2857H16.6269L19.7666 17.5429C19.8034 17.581 19.9503 17.6381 20.2073 17.7143C20.4093 17.7143 20.5701 17.6522 20.6898 17.528C20.8088 17.4046 20.8499 17.2381 20.8132 17.0286L19.6014 8.2286C19.528 7.67622 19.2893 7.21413 18.8853 6.84232C18.4814 6.47127 18.004 6.28574 17.4532 6.28574L6.54682 6.28574C5.99599 6.28574 5.51861 6.47127 5.11467 6.84232C4.71073 7.21413 4.47204 7.67622 4.3986 8.2286L3.18678 17.0286C3.15006 17.2381 3.19155 17.4046 3.31127 17.528C3.43025 17.6522 3.59072 17.7143 3.79269 17.7143C3.82941 17.7143 3.9763 17.6572 4.23335 17.5429ZM8.97045 13.1429H7.31798L7.31798 11.1429H5.39008V9.4286H7.31798V7.4286H8.97045V9.4286H10.8983V11.1429H8.97045V13.1429ZM14.4758 9.43596C14.3144 9.60341 14.1146 9.68713 13.8764 9.68713C13.6382 9.68713 13.4386 9.60341 13.2778 9.43596C13.1164 9.2691 13.0357 9.06211 13.0357 8.81501C13.0357 8.56791 13.1164 8.36063 13.2778 8.19319C13.4386 8.02632 13.6382 7.94289 13.8764 7.94289C14.1146 7.94289 14.3144 8.02632 14.4758 8.19319C14.6366 8.36063 14.717 8.56791 14.717 8.81501C14.717 9.06211 14.6366 9.2691 14.4758 9.43596ZM17.4607 9.43596C17.2993 9.60341 17.0995 9.68713 16.8613 9.68713C16.6231 9.68713 16.4236 9.60341 16.2627 9.43596C16.1013 9.2691 16.0206 9.06211 16.0206 8.81501C16.0206 8.56791 16.1013 8.36063 16.2627 8.19319C16.4236 8.02632 16.6231 7.94289 16.8613 7.94289C17.0995 7.94289 17.2993 8.02632 17.4607 8.19319C17.6215 8.36063 17.702 8.56791 17.702 8.81501C17.702 9.06211 17.6215 9.2691 17.4607 9.43596ZM14.4758 12.636C14.3144 12.8034 14.1146 12.8871 13.8764 12.8871C13.6382 12.8871 13.4386 12.8034 13.2778 12.636C13.1164 12.4691 13.0357 12.2621 13.0357 12.015C13.0357 11.7679 13.1164 11.5606 13.2778 11.3932C13.4386 11.2263 13.6382 11.1429 13.8764 11.1429C14.1146 11.1429 14.3144 11.2263 14.4758 11.3932C14.6366 11.5606 14.717 11.7679 14.717 12.015C14.717 12.2621 14.6366 12.4691 14.4758 12.636ZM17.4607 12.636C17.2993 12.8034 17.0995 12.8871 16.8613 12.8871C16.6231 12.8871 16.4236 12.8034 16.2627 12.636C16.1013 12.4691 16.0206 12.2621 16.0206 12.015C16.0206 11.7679 16.1013 11.5606 16.2627 11.3932C16.4236 11.2263 16.6231 11.1429 16.8613 11.1429C17.0995 11.1429 17.2993 11.2263 17.4607 11.3932C17.6215 11.5606 17.702 11.7679 17.702 12.015C17.702 12.2621 17.6215 12.4691 17.4607 12.636Z" fill="#F2E8D9"/>
</svg>
