<svg width="25" height="24" viewBox="0 0 25 24" fill="none" xmlns="http://www.w3.org/2000/svg">
<g id="favorite">
<mask id="mask0_9562_4037" style="mask-type:alpha" maskUnits="userSpaceOnUse" x="0" y="0" width="25" height="24">
<rect id="Bounding box" x="0.5" width="24" height="24" fill="#D9D9D9"/>
</mask>
<g mask="url(#mask0_9562_4037)">
<path id="Exclude" fill-rule="evenodd" clip-rule="evenodd" d="M11.05 19.6984L12.5 20.9984L13.95 19.6984C15.6333 18.1818 17.025 16.8734 18.125 15.7734C19.225 14.6734 20.1 13.6859 20.75 12.8109C21.4 11.9359 21.8542 11.1318 22.1125 10.3984C22.3708 9.6651 22.5 8.9151 22.5 8.14844C22.5 6.58177 21.975 5.27344 20.925 4.22344C19.875 3.17344 18.5667 2.64844 17 2.64844C16.1333 2.64844 15.3083 2.83177 14.525 3.19844C13.7417 3.5651 13.0667 4.08177 12.5 4.74844C11.9333 4.08177 11.2583 3.5651 10.475 3.19844C9.69167 2.83177 8.86667 2.64844 8 2.64844C6.43333 2.64844 5.125 3.17344 4.075 4.22344C3.025 5.27344 2.5 6.58177 2.5 8.14844C2.5 8.9151 2.62917 9.6651 2.8875 10.3984C3.14583 11.1318 3.6 11.9359 4.25 12.8109C4.9 13.6859 5.775 14.6734 6.875 15.7734C7.975 16.8734 9.36667 18.1818 11.05 19.6984ZM13.5582 10.1975C13.5582 10.8907 13.0019 11.4532 12.3163 11.4532C11.6307 11.4532 11.0745 10.8672 11.0745 10.1975C11.0745 9.52776 11.6307 8.94176 12.3163 8.94176C13.0019 8.94176 13.5582 9.50422 13.5582 10.1975ZM9.38505 5.47835L11.2194 8.44209C10.6347 8.81619 10.2414 9.46759 10.2417 10.2158H6.78001C6.27965 10.2158 5.88112 9.76844 5.95392 9.26746C6.18625 7.67218 6.99475 6.26683 8.15743 5.27011C8.53645 4.94467 9.12116 5.05193 9.38505 5.47835ZM15.2499 5.47848C15.5138 5.05198 16.097 4.94467 16.4765 5.27011C17.6382 6.26552 18.4454 7.67297 18.679 9.2672C18.7517 9.76765 18.3533 10.2158 17.8529 10.2158H14.3912C14.3912 9.46759 13.998 8.81619 13.4133 8.44209L15.2499 5.47848ZM12.3163 12.3113C12.7199 12.3113 13.0951 12.1883 13.4133 11.9869L15.2481 14.9527C15.5105 15.3768 15.3558 15.952 14.9035 16.1548C14.1124 16.5098 13.2374 16.7089 12.3163 16.7089C11.3953 16.7089 10.5208 16.51 9.72966 16.1556C9.27742 15.9528 9.12271 15.3775 9.38505 14.9535L11.2194 11.9869C11.5376 12.1883 11.9127 12.3113 12.3163 12.3113Z" fill="#F2E8D9"/>
</g>
</g>
</svg>
