<svg width="24" height="24" viewBox="0 0 24 24" fill="none" xmlns="http://www.w3.org/2000/svg">
<path fill-rule="evenodd" clip-rule="evenodd" d="M17.9717 3.02982C19.1619 3.17567 20.2817 3.82049 20.9687 4.75567C21.8356 5.93553 22.0323 7.4478 21.4953 8.80352C21.08 9.85196 20.0759 10.8143 18.9789 11.2152C18.1985 11.5005 17.1841 11.5579 16.3873 11.362C15.5998 11.1684 14.7856 10.6911 14.2281 10.0963C12.421 8.1687 12.8212 5.11928 15.0687 3.69086C15.9098 3.15626 16.9921 2.90984 17.9717 3.02982ZM8.15839 3.02982C9.34856 3.17567 10.4683 3.82049 11.1554 4.75567C12.0223 5.93553 12.2189 7.4478 11.682 8.80352C11.2667 9.85196 10.2626 10.8143 9.16563 11.2152C8.38522 11.5005 7.37082 11.5579 6.57395 11.362C5.78653 11.1684 4.97228 10.6911 4.41477 10.0963C2.60774 8.1687 3.00794 5.11928 5.25539 3.69086C6.09652 3.15626 7.17879 2.90984 8.15839 3.02982ZM18.5929 12.5924C21.4281 12.9088 23.6277 15.0788 23.948 17.8753C24.019 18.4954 24.0174 18.9043 23.9427 19.1928C23.8603 19.5116 23.5012 19.8613 23.1737 19.9415C23.0054 19.9828 22.1001 20 20.0923 20C17.4088 20 17.2507 19.9951 17.2752 19.9129C17.4437 19.3476 17.4754 18.9574 17.4099 18.2505C17.2291 16.2963 16.4172 14.4983 15.1162 13.1713C14.9894 13.0419 14.897 12.925 14.9109 12.9114C14.9737 12.8503 15.9462 12.633 16.3617 12.5872C16.9018 12.5277 18.0368 12.5303 18.5929 12.5924ZM9.25727 12.5676C11.1802 12.7645 12.8361 13.663 13.967 15.123C14.7414 16.1228 15.2614 17.6037 15.2625 18.8125C15.2629 19.2646 15.0785 19.614 14.7279 19.8251L14.4786 19.9751L7.75701 19.9885C0.156815 20.0035 0.660818 20.0281 0.296091 19.6247C0.010891 19.3092 -0.0426216 19.0596 0.0280647 18.3744C0.155689 17.138 0.559364 16.0968 1.27803 15.15C2.24378 13.8778 3.60992 13.0248 5.23259 12.6808C5.6725 12.5876 5.92443 12.5736 7.39172 12.561C8.30533 12.5531 9.14483 12.5561 9.25727 12.5676Z" fill="#F2E8D9"/>
</svg>
