<svg width="24" height="24" viewBox="0 0 24 24" fill="none" xmlns="http://www.w3.org/2000/svg">
<path fill-rule="evenodd" clip-rule="evenodd" d="M11.3092 1.0386C9.74964 1.2274 8.28227 2.06211 7.38191 3.27269C6.246 4.8 5.98828 6.75762 6.69193 8.51258C7.23611 9.86977 8.55185 11.1155 9.98935 11.6345C11.012 12.0038 12.3413 12.0781 13.3855 11.8245C14.4173 11.5738 15.4843 10.956 16.2149 10.1861C18.5828 7.69082 18.0584 3.74338 15.1133 1.89431C14.0111 1.20228 12.5929 0.88329 11.3092 1.0386ZM9.86926 13.3852C7.34943 13.6401 5.17954 14.8031 3.69764 16.6931C2.68282 17.9873 2.00141 19.9042 2 21.469C1.99947 22.0543 2.24118 22.5067 2.7005 22.7798L3.02721 22.9741L11.8352 22.9913C21.7945 23.0108 21.1341 23.0427 21.612 22.5204C21.9857 22.112 22.0559 21.7889 21.9632 20.9019C21.796 19.3015 21.267 17.9536 20.3253 16.728C19.0598 15.0812 17.2696 13.977 15.1432 13.5317C14.5667 13.411 14.2366 13.3929 12.3139 13.3766C11.1167 13.3664 10.0166 13.3703 9.86926 13.3852Z" fill="#F2E8D9"/>
</svg>
